<svg width="40" height="48" fill="none" xmlns="http://www.w3.org/2000/svg"><mask id="path-1-outside-1_1_6154" maskUnits="userSpaceOnUse" x="11" y="12.5" width="30" height="36" fill="#000"><path fill="#fff" d="M11 12.5h30v36H11z"/><path d="M12.96 13.9h15.744v1.824c-.672.352-1.424.656-2.256.912-.8.224-1.584.384-2.352.48V44.38h9.264l3.216-8.592h1.968c.128.736.24 1.6.336 2.592.128.992.224 2.032.288 3.12.064 1.088.112 2.16.144 3.216a40.188 40.188 0 010 2.784H12.96v-1.824a15.761 15.761 0 012.064-.912 12.421 12.421 0 011.872-.48V17.116c-1.568-.256-2.88-.72-3.936-1.392V13.9z"/></mask><path d="M12.96 13.9h15.744v1.824c-.672.352-1.424.656-2.256.912-.8.224-1.584.384-2.352.48V44.38h9.264l3.216-8.592h1.968c.128.736.24 1.6.336 2.592.128.992.224 2.032.288 3.12.064 1.088.112 2.16.144 3.216a40.188 40.188 0 010 2.784H12.96v-1.824a15.761 15.761 0 012.064-.912 12.421 12.421 0 011.872-.48V17.116c-1.568-.256-2.88-.72-3.936-1.392V13.9z" fill="#33DFBF" fill-opacity=".8"/><path d="M12.96 13.9v-1h-1v1h1zm15.744 0h1v-1h-1v1zm0 1.824l.464.886.536-.28v-.606h-1zm-2.256.912l.27.963.012-.003.012-.004-.294-.956zm-2.352.48l-.124-.992-.876.11v.882h1zm0 27.264h-1v1h1v-1zm9.264 0v1h.694l.242-.65-.936-.35zm3.216-8.592v-1h-.694l-.242.65.936.35zm1.968 0l.985-.171-.144-.829h-.841v1zm.336 2.592l-.995.096.001.016.002.016.992-.128zm.288 3.12l.998-.059-.998.059zm.144 3.216l-1 .03 1-.03zm0 2.784v1h.96l.04-.96-1-.04zm-26.352 0h-1v1h1v-1zm0-1.824l-.463-.887-.537.28v.607h1zm2.064-.912l-.316-.949-.007.003-.007.002.33.944zm1.872-.48l.164.986.836-.139v-.847h-1zm0-27.168h1v-.85l-.839-.137-.161.987zm-3.936-1.392h-1v.549l.463.295.537-.844zm0-.824h15.744v-2H12.96v2zm14.744-1v1.824h2V13.9h-2zm.536.938c-.61.32-1.304.602-2.086.842l.588 1.912a14.257 14.257 0 002.426-.982l-.928-1.772zm-2.062.835c-.755.212-1.49.361-2.206.45l.248 1.985a17.17 17.17 0 002.498-.509l-.54-1.926zm-3.082 1.443V44.38h2V17.116h-2zm1 28.264h9.264v-2h-9.264v2zm10.2-.65l3.217-8.591-1.873-.702-3.217 8.592 1.873.701zm2.28-7.942h1.968v-2h-1.968v2zm.983-.829c.122.705.231 1.543.326 2.517l1.99-.192c-.097-1.01-.212-1.9-.346-2.667l-1.97.342zm.33 2.549c.124.967.218 1.984.28 3.05l1.997-.117a46.148 46.148 0 00-.294-3.189l-1.984.256zm.28 3.05c.064 1.08.112 2.142.144 3.188l1.998-.06a114.28 114.28 0 00-.145-3.245l-1.996.118zm.144 3.188a40.04 40.04 0 010 2.714l1.998.08c.033-.83.033-1.782 0-2.854l-1.998.06zm.999 1.754H12.96v2h26.352v-2zm-25.352 1v-1.824h-2V47.5h2zm-.537-.937a14.66 14.66 0 011.931-.855l-.66-1.888c-.695.243-1.427.568-2.197.97l.926 1.773zm1.917-.85a11.43 11.43 0 011.72-.443l-.328-1.972c-.637.106-1.313.28-2.024.517l.632 1.898zm2.556-1.429V17.116h-2v27.168h2zm-.839-28.155c-1.469-.24-2.645-.666-3.56-1.249l-1.074 1.688c1.197.761 2.645 1.263 4.312 1.535l.322-1.974zm-3.097-.405V13.9h-2v1.824h2z" fill="#000" fill-opacity=".04" mask="url(#path-1-outside-1_1_6154)"/><mask id="path-3-outside-2_1_6154" maskUnits="userSpaceOnUse" x="0" y="-1.5" width="26" height="38" fill="#000"><path fill="#fff" d="M0-1.5h26v38H0z"/><path d="M7.536 30.516c.352.352.848.688 1.488 1.008.64.288 1.488.432 2.544.432 1.76 0 3.216-.448 4.368-1.344 1.184-.928 1.776-2.208 1.776-3.84 0-1.184-.384-2.176-1.152-2.976-.736-.8-1.68-1.536-2.832-2.208a56.49 56.49 0 00-3.696-1.968 23.325 23.325 0 01-3.696-2.352 12.329 12.329 0 01-2.88-3.168c-.736-1.248-1.104-2.784-1.104-4.608 0-1.568.288-2.928.864-4.08A7.82 7.82 0 015.568 2.58c1.024-.768 2.224-1.328 3.6-1.68 1.376-.384 2.864-.576 4.464-.576 1.952 0 3.76.144 5.424.432 1.696.256 3.216.672 4.56 1.248a34.6 34.6 0 01-.192 2.208 33.11 33.11 0 01-.288 2.496c-.128.8-.272 1.568-.432 2.304a23.068 23.068 0 01-.384 1.776h-1.968l-2.208-6.576c-.384-.192-.96-.368-1.728-.528-.736-.16-1.504-.24-2.304-.24-1.344 0-2.48.352-3.408 1.056-.928.704-1.392 1.728-1.392 3.072 0 1.216.384 2.256 1.152 3.12.768.832 1.728 1.6 2.88 2.304 1.152.704 2.4 1.408 3.744 2.112a21.574 21.574 0 013.792 2.352 12.329 12.329 0 012.88 3.168c.768 1.184 1.152 2.656 1.152 4.416 0 3.2-1.088 5.68-3.264 7.44-2.144 1.728-5.312 2.592-9.504 2.592a25.914 25.914 0 01-6.048-.72 26.739 26.739 0 01-2.496-.72c-.704-.256-1.232-.528-1.584-.816.032-.736.112-1.52.24-2.352.128-.864.256-1.712.384-2.544.16-.864.32-1.68.48-2.448.16-.768.32-1.44.48-2.016h1.968l1.968 7.056z"/></mask><path d="M7.536 30.516c.352.352.848.688 1.488 1.008.64.288 1.488.432 2.544.432 1.76 0 3.216-.448 4.368-1.344 1.184-.928 1.776-2.208 1.776-3.84 0-1.184-.384-2.176-1.152-2.976-.736-.8-1.68-1.536-2.832-2.208a56.49 56.49 0 00-3.696-1.968 23.325 23.325 0 01-3.696-2.352 12.329 12.329 0 01-2.88-3.168c-.736-1.248-1.104-2.784-1.104-4.608 0-1.568.288-2.928.864-4.08A7.82 7.82 0 015.568 2.58c1.024-.768 2.224-1.328 3.6-1.68 1.376-.384 2.864-.576 4.464-.576 1.952 0 3.76.144 5.424.432 1.696.256 3.216.672 4.56 1.248a34.6 34.6 0 01-.192 2.208 33.11 33.11 0 01-.288 2.496c-.128.8-.272 1.568-.432 2.304a23.068 23.068 0 01-.384 1.776h-1.968l-2.208-6.576c-.384-.192-.96-.368-1.728-.528-.736-.16-1.504-.24-2.304-.24-1.344 0-2.48.352-3.408 1.056-.928.704-1.392 1.728-1.392 3.072 0 1.216.384 2.256 1.152 3.12.768.832 1.728 1.6 2.88 2.304 1.152.704 2.4 1.408 3.744 2.112a21.574 21.574 0 013.792 2.352 12.329 12.329 0 012.88 3.168c.768 1.184 1.152 2.656 1.152 4.416 0 3.2-1.088 5.68-3.264 7.44-2.144 1.728-5.312 2.592-9.504 2.592a25.914 25.914 0 01-6.048-.72 26.739 26.739 0 01-2.496-.72c-.704-.256-1.232-.528-1.584-.816.032-.736.112-1.52.24-2.352.128-.864.256-1.712.384-2.544.16-.864.32-1.68.48-2.448.16-.768.32-1.44.48-2.016h1.968l1.968 7.056z" fill="#33DFBF"/><path d="M7.536 30.516l-.963.269.07.253.186.185.707-.707zm1.488 1.008l-.447.894.018.01.019.008.41-.912zm6.912-.912l.614.79.003-.003-.617-.787zm.624-6.816l-.736.677.007.008.008.007.721-.692zm-2.832-2.208l.504-.864-.504.864zm-3.696-1.968l-.456.89.009.005.009.004.438-.899zm-3.696-2.352l-.614.79.614-.79zM3.456 14.1l-.861.508.007.013.009.013.845-.534zm-.24-8.688l.894.447-.894-.447zM5.568 2.58l.596.803.004-.003-.6-.8zM9.168.9l.248.969.01-.003.01-.003L9.169.9zm9.888-.144l-.17.985.01.002.01.002.15-.989zm4.56 1.248l.999.05.035-.695-.64-.274-.394.919zm-.192 2.208l-.993-.115-.003.02-.001.018.997.077zm-.288 2.496l.988.158V6.86l-.988-.152zm-.432 2.304l-.977-.212-.004.016-.003.017.984.179zm-.384 1.776v1h.768l.198-.742-.966-.258zm-1.968 0l-.948.318.229.682h.719v-1zm-2.208-6.576l.948-.318-.131-.392-.37-.184-.447.894zm-1.728-.528l-.212.977.008.002.204-.979zm-5.712.816l.604.797-.604-.797zm-.24 6.192l-.747.664.006.007.006.007.735-.678zm2.88 2.304l-.521.853.521-.853zm3.744 2.112l-.464.886.013.006.012.007.439-.899zm3.792 2.352l.614-.79-.614.79zm2.88 3.168l-.846.534.007.01.839-.544zm-2.112 11.856l.628.779v-.002l-.628-.777zm-12.624 2.4l-.124.992h.004l.12-.992zm-2.928-.528l-.235.972.235-.972zm-2.496-.72l-.342.94.013.005.329-.945zm-1.584-.816l-1-.043-.02.5.387.317.633-.774zm.24-2.352l.988.152.001-.006-.989-.146zm.384-2.544l-.983-.182-.003.015-.002.015.988.152zm.48-2.448l.979.204-.979-.204zm.48-2.016v-1h-.76l-.204.732.964.268zm1.968 0l.963-.269-.204-.731h-.759v1zm1.26 7.763c.454.453 1.051.846 1.749 1.195l.894-1.788c-.582-.291-.977-.57-1.228-.821L6.83 31.223zm1.786 1.213c.817.368 1.821.52 2.954.52v-2c-.98 0-1.671-.136-2.134-.344l-.82 1.824zm2.954.52c1.935 0 3.62-.496 4.982-1.555l-1.228-1.578c-.942.733-2.17 1.133-3.754 1.133v2zm4.985-1.557c1.448-1.135 2.159-2.718 2.159-4.627h-2c0 1.355-.473 2.332-1.393 3.053l1.234 1.574zm2.159-4.627c0-1.423-.47-2.669-1.43-3.668l-1.443 1.384c.576.6.873 1.339.873 2.284h2zm-1.416-3.653c-.817-.888-1.845-1.683-3.064-2.395l-1.008 1.728c1.085.632 1.945 1.309 2.6 2.021l1.472-1.354zm-3.064-2.395a57.507 57.507 0 00-3.762-2.003l-.876 1.798a55.42 55.42 0 013.63 1.933l1.008-1.728zm-3.744-1.994a22.327 22.327 0 01-3.538-2.251l-1.228 1.578a24.323 24.323 0 003.854 2.453l.912-1.78zM6.95 16.479a11.327 11.327 0 01-2.65-2.913l-1.69 1.068a13.331 13.331 0 003.111 3.423L6.95 16.48zm-2.633-2.887c-.624-1.059-.965-2.409-.965-4.1h-2c0 1.957.395 3.679 1.243 5.116l1.722-1.016zm-.965-4.1c0-1.446.265-2.647.758-3.633l-1.788-.894c-.66 1.318-.97 2.837-.97 4.527h2zm.758-3.633a6.82 6.82 0 012.054-2.476L4.972 1.777a8.82 8.82 0 00-2.65 3.188l1.788.894zM6.168 3.38c.908-.68 1.985-1.188 3.248-1.511L8.92-.07C7.43.312 6.108.925 4.968 1.78l1.2 1.6zm3.269-1.517c1.279-.357 2.675-.539 4.195-.539v-2c-1.68 0-3.26.202-4.733.613l.538 1.926zm4.195-.539c1.904 0 3.654.14 5.254.417l.34-1.97c-1.728-.3-3.593-.447-5.594-.447v2zm5.275.42c1.626.246 3.061.642 4.315 1.18l.788-1.84C22.576.47 20.97.035 19.205-.232l-.298 1.978zm3.71.21a33.59 33.59 0 01-.186 2.143l1.986.23c.098-.848.164-1.606.198-2.273l-1.998-.1zm-.19 2.181a32.081 32.081 0 01-.28 2.42l1.977.305c.132-.857.231-1.714.297-2.571l-1.994-.154zm-.278 2.415a41.347 41.347 0 01-.422 2.25l1.954.424a42.78 42.78 0 00.442-2.358L22.15 6.55zm-.429 2.283a22.144 22.144 0 01-.366 1.697l1.932.516c.137-.515.271-1.135.402-1.855l-1.968-.358zm.6.955h-1.968v2h1.968v-2zm-1.02.682l-2.208-6.576-1.896.636 2.208 6.576 1.896-.636zm-2.709-7.152c-.5-.25-1.176-.447-1.971-.613l-.408 1.958c.74.154 1.217.31 1.485.443l.894-1.788zm-1.963-.611a11.82 11.82 0 00-2.516-.263v2c.733 0 1.43.073 2.092.217l.424-1.954zm-2.516-.263c-1.527 0-2.885.404-4.012 1.26l1.208 1.593c.729-.553 1.643-.853 2.804-.853v-2zM10.1 3.704c-1.218.923-1.788 2.266-1.788 3.868h2c0-1.086.358-1.791.996-2.275L10.1 3.703zM8.312 7.571c0 1.447.465 2.727 1.405 3.784l1.494-1.328c-.596-.671-.899-1.471-.899-2.456h-2zm1.417 3.798c.842.912 1.877 1.736 3.094 2.48l1.043-1.707c-1.088-.665-1.973-1.377-2.667-2.13l-1.47 1.357zm3.094 2.48a66.228 66.228 0 003.801 2.144l.928-1.772a64.244 64.244 0 01-3.686-2.08l-1.043 1.707zm3.826 2.157a20.573 20.573 0 013.617 2.242l1.228-1.578a22.574 22.574 0 00-3.967-2.462l-.878 1.798zm3.617 2.242a11.325 11.325 0 012.649 2.913l1.69-1.068a13.33 13.33 0 00-3.111-3.423l-1.228 1.578zm2.655 2.923c.64.986.991 2.257.991 3.872h2c0-1.905-.417-3.578-1.313-4.96l-1.678 1.088zm.991 3.872c0 2.947-.987 5.121-2.893 6.662l1.258 1.555c2.446-1.978 3.635-4.764 3.635-8.217h-2zm-2.892 6.661c-1.894 1.527-4.799 2.371-8.876 2.371v2c4.307 0 7.738-.884 10.132-2.813l-1.256-1.558zm-8.876 2.371c-.982 0-1.982-.061-3-.185l-.24 1.986c1.094.132 2.174.199 3.24.199v-2zm-2.996-.184a25.474 25.474 0 01-2.817-.508l-.47 1.944c.968.234 1.98.416 3.039.548l.248-1.984zm-2.817-.508a25.76 25.76 0 01-2.402-.693l-.658 1.89c.773.268 1.637.517 2.59.747l.47-1.944zm-2.39-.688c-.657-.239-1.065-.465-1.292-.65l-1.266 1.548c.477.39 1.125.709 1.875.982l.684-1.88zm-.926.167c.03-.694.106-1.442.23-2.243l-1.977-.304a22.719 22.719 0 00-.251 2.46l1.998.087zm.23-2.248c.128-.863.256-1.709.383-2.539l-1.976-.304a462.57 462.57 0 00-.385 2.55l1.978.293zm.378-2.509c.16-.858.318-1.666.476-2.426l-1.958-.408c-.162.776-.323 1.6-.484 2.47l1.966.364zM4.1 25.68c.157-.753.312-1.403.465-1.952l-1.928-.536a33.028 33.028 0 00-.495 2.08l1.958.408zm-.5-1.22h1.968v-2H3.6v2zm1.005-.731l1.968 7.056 1.926-.538-1.968-7.056-1.926.538z" fill="#000" fill-opacity=".04" mask="url(#path-3-outside-2_1_6154)"/></svg>